<svg width="21" height="22" viewBox="0 0 21 22" fill="none" xmlns="http://www.w3.org/2000/svg">
<path d="M7.49998 20.1256V16.9456C7.50063 16.7517 7.53946 16.5599 7.61424 16.3811C7.68902 16.2023 7.7983 16.0399 7.93582 15.9033C8.07334 15.7668 8.23642 15.6586 8.41575 15.585C8.59508 15.5114 8.78714 15.4739 8.98098 15.4746H11.97C12.3622 15.4744 12.7385 15.6294 13.017 15.9056C13.1543 16.0417 13.2634 16.2037 13.3379 16.3822C13.4124 16.5607 13.4508 16.7522 13.451 16.9456V20.1246C13.45 20.2916 13.4821 20.4572 13.5457 20.6117C13.6092 20.7662 13.7028 20.9065 13.821 21.0246C14.0613 21.2641 14.3867 21.3986 14.726 21.3986H16.765C17.716 21.4015 18.6295 21.0279 19.306 20.3596C19.6394 20.03 19.9041 19.6376 20.0848 19.205C20.2656 18.7725 20.3587 18.3084 20.359 17.8396V8.78257C20.3593 8.40428 20.2761 8.03058 20.1154 7.68814C19.9546 7.3457 19.7202 7.04298 19.429 6.80158L12.491 1.30158C11.9046 0.834646 11.1738 0.586778 10.4243 0.60065C9.67485 0.614522 8.95368 0.889266 8.38498 1.37758L1.60598 6.80158C1.30093 7.03563 1.05222 7.33508 0.878132 7.67789C0.70404 8.02071 0.608992 8.39819 0.599976 8.78257L0.599976 17.8326C0.601549 18.3029 0.695766 18.7684 0.877245 19.2023C1.05872 19.6362 1.32391 20.0301 1.65766 20.3616C1.99141 20.693 2.38718 20.9554 2.82236 21.1339C3.25755 21.3123 3.72363 21.4033 4.19398 21.4016H6.18698C6.525 21.4027 6.84975 21.2701 7.09044 21.0328C7.33114 20.7954 7.46828 20.4726 7.47198 20.1346L7.49998 20.1256Z" stroke="#BBBFD0" stroke-width="1.2"/>
</svg>
